<svg height="512pt" viewBox="0 -16 512 512" width="512pt" xmlns="http://www.w3.org/2000/svg"><path d="m152.230469 240.078125c-4.421875 0-8.039063-3.574219-8.039063-8 0-4.421875 3.535156-8 7.953125-8h.085938c4.417969 0 8 3.578125 8 8 0 4.425781-3.582031 8-8 8zm0 0"/><path d="m124 480.078125c-68.375 0-124-55.621094-124-124 0-43.757813 22.375-83.4375 59.855469-106.140625 3.761719-2.265625 8.695312-1.082031 10.984375 2.703125 2.289062 3.773437 1.082031 8.695313-2.703125 10.984375-32.640625 19.773438-52.136719 54.335938-52.136719 92.453125 0 59.554687 48.449219 108 108 108s108-48.445313 108-108c0-38.117187-19.496094-72.679687-52.144531-92.453125-3.785157-2.289062-4.992188-7.210938-2.703125-10.984375 2.296875-3.792969 7.230468-4.976563 10.984375-2.703125 37.488281 22.703125 59.863281 62.382812 59.863281 106.140625 0 68.378906-55.625 124-124 124zm0 0"/><path d="m123.878906 448.078125c-50.726562 0-92-41.269531-92-92 0-50.726563 41.273438-92 92-92 50.730469 0 92 41.273437 92 92 0 50.730469-41.269531 92-92 92zm0-168c-41.902344 0-76 34.097656-76 76 0 41.90625 34.097656 76 76 76 41.90625 0 76-34.09375 76-76 0-41.902344-34.085937-76-76-76zm0 0"/><path d="m64 264.785156c-4.425781 0-8-3.578125-8-8v-40.707031c0-4.421875 3.574219-8 8-8s8 3.578125 8 8v40.707031c0 4.421875-3.574219 8-8 8zm0 0"/><path d="m184 264.785156c-4.425781 0-8-3.578125-8-8v-40.707031c0-4.421875 3.574219-8 8-8s8 3.578125 8 8v40.707031c0 4.421875-3.574219 8-8 8zm0 0"/><path d="m64 224.078125c-4.425781 0-8-3.574219-8-8 0-13.230469 10.769531-24 24-24 4.425781 0 8 3.578125 8 8 0 4.425781-3.574219 8-8 8-4.414062 0-8 3.585937-8 8 0 4.425781-3.574219 8-8 8zm0 0"/><path d="m184 224.078125c-4.425781 0-8-3.574219-8-8 0-4.414063-3.585938-8-8-8-4.425781 0-8-3.574219-8-8 0-4.421875 3.574219-8 8-8 13.230469 0 24 10.769531 24 24 0 4.425781-3.574219 8-8 8zm0 0"/><path d="m168 208.078125h-88c-4.425781 0-8-3.574219-8-8 0-4.421875 3.574219-8 8-8h88c4.425781 0 8 3.578125 8 8 0 4.425781-3.574219 8-8 8zm0 0"/><path d="m124 480.078125c-13.230469 0-24-10.765625-24-24 0-13.230469 10.769531-24 24-24 4.425781 0 8 3.578125 8 8 0 4.425781-3.574219 8-8 8-4.414062 0-8 3.585937-8 8 0 4.417969 3.585938 8 8 8 4.425781 0 8 3.578125 8 8 0 4.425781-3.574219 8-8 8zm0 0"/><path d="m360.246094 240.078125c-4.421875 0-8.039063-3.574219-8.039063-8 0-4.421875 3.535157-8 7.953125-8h.085938c4.417968 0 8 3.578125 8 8 0 4.425781-3.582032 8-8 8zm0 0"/><path d="m388 480.078125c-68.375 0-124-55.621094-124-124 0-43.757813 22.375-83.4375 59.855469-106.140625 3.761719-2.265625 8.6875-1.082031 10.984375 2.703125 2.289062 3.773437 1.082031 8.695313-2.703125 10.984375-32.640625 19.773438-52.136719 54.335938-52.136719 92.453125 0 59.554687 48.449219 108 108 108s108-48.445313 108-108c0-38.117187-19.496094-72.679687-52.144531-92.453125-3.785157-2.289062-4.992188-7.210938-2.703125-10.984375 2.296875-3.792969 7.230468-4.976563 10.984375-2.703125 37.488281 22.703125 59.863281 62.382812 59.863281 106.140625 0 68.378906-55.625 124-124 124zm0 0"/><path d="m388.121094 448.078125c-50.730469 0-92-41.269531-92-92 0-50.726563 41.269531-92 92-92 50.726562 0 92 41.273437 92 92 0 50.730469-41.28125 92-92 92zm0-168c-41.90625 0-76 34.097656-76 76 0 41.90625 34.09375 76 76 76 41.902344 0 76-34.09375 76-76 0-41.902344-34.097656-76-76-76zm0 0"/><path d="m448 264.785156c-4.425781 0-8-3.578125-8-8v-40.707031c0-4.421875 3.574219-8 8-8s8 3.578125 8 8v40.707031c0 4.421875-3.574219 8-8 8zm0 0"/><path d="m328 264.785156c-4.425781 0-8-3.578125-8-8v-40.707031c0-4.421875 3.574219-8 8-8s8 3.578125 8 8v40.707031c0 4.421875-3.574219 8-8 8zm0 0"/><path d="m448 224.078125c-4.425781 0-8-3.574219-8-8 0-4.414063-3.585938-8-8-8-4.425781 0-8-3.574219-8-8 0-4.421875 3.574219-8 8-8 13.230469 0 24 10.769531 24 24 0 4.425781-3.574219 8-8 8zm0 0"/><path d="m328 224.078125c-4.425781 0-8-3.574219-8-8 0-13.230469 10.769531-24 24-24 4.425781 0 8 3.578125 8 8 0 4.425781-3.574219 8-8 8-4.414062 0-8 3.585937-8 8 0 4.425781-3.574219 8-8 8zm0 0"/><path d="m432 208.078125h-88c-4.425781 0-8-3.574219-8-8 0-4.421875 3.574219-8 8-8h88c4.425781 0 8 3.578125 8 8 0 4.425781-3.574219 8-8 8zm0 0"/><path d="m388 480.078125c-4.425781 0-8-3.574219-8-8 0-4.421875 3.574219-8 8-8 4.414062 0 8-3.582031 8-8 0-4.414063-3.585938-8-8-8-4.425781 0-8-3.574219-8-8 0-4.421875 3.574219-8 8-8 13.230469 0 24 10.769531 24 24 0 13.234375-10.769531 24-24 24zm0 0"/><path d="m375.871094 160c-4.421875 0-8-3.574219-8-8 0-61.761719-50.238282-112-112-112-61.757813 0-112 50.238281-112 112 0 4.425781-3.574219 8-8 8-4.421875 0-8-3.574219-8-8 0-70.574219 57.425781-128 128-128 70.578125 0 128 57.425781 128 128 0 4.425781-3.574219 8-8 8zm0 0"/><path d="m399.871094 160c-4.421875 0-8-3.574219-8-8 0-74.992188-61.007813-136-136-136-74.992188 0-136 61.007812-136 136 0 4.425781-3.574219 8-8 8-4.421875 0-8-3.574219-8-8 0-83.816406 68.183594-152 152-152s152 68.183594 152 152c0 4.425781-3.574219 8-8 8zm0 0"/><path d="m135.871094 206.871094c-4.421875 0-8-3.574219-8-8v-46.863282c0-4.421874 3.578125-8 8-8 4.425781 0 8 3.578126 8 8v46.863282c0 4.417968-3.574219 8-8 8zm0 0"/><path d="m111.878906 206.871094c-4.421875 0-8-3.574219-8-8v-46.863282c0-4.421874 3.578125-8 8-8 4.425782 0 8 3.578126 8 8v46.863282c0 4.417968-3.574218 8-8 8zm0 0"/><path d="m399.992188 206.871094c-4.425782 0-8-3.574219-8-8v-46.863282c0-4.421874 3.574218-8 8-8 4.421874 0 8 3.578126 8 8v46.863282c0 4.417968-3.578126 8-8 8zm0 0"/><path d="m376 206.871094c-4.425781 0-8-3.574219-8-8v-46.863282c0-4.421874 3.574219-8 8-8s8 3.578126 8 8v46.863282c0 4.417968-3.574219 8-8 8zm0 0"/><path d="m255.871094 40c-4.421875 0-8-3.574219-8-8v-24c0-4.425781 3.578125-8 8-8 4.425781 0 8 3.574219 8 8v24c0 4.425781-3.574219 8-8 8zm0 0"/><path d="m209.953125 49.136719c-3.136719 0-6.121094-1.855469-7.394531-4.9375l-9.183594-22.167969c-1.6875-4.078125.25-8.765625 4.328125-10.457031 4.066406-1.671875 8.769531.25 10.457031 4.328125l9.183594 22.167968c1.6875 4.082032-.246094 8.769532-4.328125 10.457032-1 .410156-2.039063.609375-3.0625.609375zm0 0"/><path d="m171.015625 75.144531c-2.046875 0-4.09375-.785156-5.65625-2.34375l-16.96875-16.96875c-3.125-3.128906-3.125-8.183593 0-11.3125 3.128906-3.128906 8.183594-3.128906 11.3125 0l16.96875 16.96875c3.128906 3.128907 3.128906 8.183594 0 11.3125-1.558594 1.558594-3.609375 2.34375-5.65625 2.34375zm0 0"/><path d="m145 114.070312c-1.023438 0-2.0625-.191406-3.0625-.605468l-22.167969-9.175782c-4.082031-1.6875-6.015625-6.367187-4.328125-10.457031 1.6875-4.089843 6.390625-6.007812 10.453125-4.328125l22.167969 9.175782c4.082031 1.6875 6.015625 6.367187 4.328125 10.457031-1.269531 3.070312-4.253906 4.933593-7.390625 4.933593zm0 0"/><path d="m111.855469 160c-4.414063 0-8-3.574219-8-8 0-4.414062 3.578125-8 8-8l24-.007812c4.417969 0 8 3.574218 8 8 0 4.414062-3.574219 8-8 8zm0 0"/><path d="m399.863281 159.992188h-24.007812c-4.421875 0-8-3.578126-8-8 0-4.425782 3.578125-8 8-8h24.007812c4.425781 0 8 3.574218 8 8 0 4.421874-3.574219 8-8 8zm0 0"/><path d="m366.71875 114.078125c-3.132812 0-6.117188-1.855469-7.390625-4.933594-1.6875-4.089843.246094-8.769531 4.328125-10.457031l22.183594-9.183594c4.0625-1.679687 8.769531.25 10.457031 4.328125 1.6875 4.089844-.25 8.769531-4.328125 10.457031l-22.183594 9.183594c-1 .40625-2.042968.605469-3.066406.605469zm0 0"/><path d="m340.703125 75.160156c-2.046875 0-4.09375-.785156-5.65625-2.34375-3.125-3.128906-3.125-8.183594 0-11.3125l16.984375-16.976562c3.128906-3.128906 8.183594-3.128906 11.3125 0s3.128906 8.183594 0 11.3125l-16.984375 16.976562c-1.558594 1.558594-3.605469 2.34375-5.65625 2.34375zm0 0"/><path d="m301.777344 49.152344c-1.023438 0-2.066406-.191406-3.066406-.609375-4.085938-1.695313-6.023438-6.375-4.328126-10.453125l9.191407-22.179688c1.691406-4.085937 6.394531-6.007812 10.457031-4.324218 4.089844 1.695312 6.023438 6.375 4.328125 10.453124l-9.191406 22.175782c-1.28125 3.074218-4.265625 4.9375-7.390625 4.9375zm0 0"/></svg>